<svg xmlns="http://www.w3.org/2000/svg" viewBox="0 0 256 256" role="img" aria-label="UrsusBoot">
<style>.ub-cur{animation:ubcur 1.08s steps(1,end) infinite}@keyframes ubcur{0%,52%{opacity:1}53%,100%{opacity:0}}</style>
<g fill="#C8873A"><circle cx="58" cy="72" r="32"/><circle cx="198" cy="72" r="32"/><path d="M128 40c52 0 84 32 84 82 0 54-36 92-84 92s-84-38-84-92c0-50 32-82 84-82z"/></g>
<g fill="#241610" stroke="#241610" stroke-linecap="round" stroke-linejoin="round"><circle cx="58" cy="72" r="14" stroke="none"/><circle cx="198" cy="72" r="14" stroke="none"/><path d="M86 90l26 9M170 90l-26 9" fill="none" stroke-width="10"/><path d="M92 112l15 12-15 12" fill="none" stroke-width="11"/><rect class="ub-cur" x="150" y="110" width="19" height="28" rx="3" stroke="none"/></g>
<ellipse cx="128" cy="182" rx="48" ry="31" fill="#EFC079"/><path d="M113 163h30a8 8 0 0 1 6 13l-13 12a6 6 0 0 1-8 0l-13-12a8 8 0 0 1 6-13z" fill="#241610"/><path d="M110 198c6 7 14 7 18 1M146 198c-6 7-14 7-18 1" fill="none" stroke="#241610" stroke-width="6" stroke-linecap="round"/>
</svg>
